<?xml version="1.0" encoding="utf-8"?>
<!-- Generator: Adobe Illustrator 27.5.0, SVG Export Plug-In . SVG Version: 6.00 Build 0)  -->
<svg version="1.1" id="Ebene_1" xmlns="http://www.w3.org/2000/svg" xmlns:xlink="http://www.w3.org/1999/xlink" x="0px" y="0px"
	 viewBox="0 0 320 320" style="enable-background:new 0 0 320 320;" xml:space="preserve">
<style type="text/css">
	.st0{fill:#FFFFFF;}
</style>
<g>
	<g>
		<path class="st0" d="M238.6,81.8l28.2-8.2c-25.2-31.1-63.7-51-106.8-51C84.1,22.6,22.6,84.1,22.6,160c0,3.8,0.1,7.5,0.5,11.2
			c0.8,10.5,2.9,20.6,5.9,30.3c6.5-8.2,13.6-16.3,21.4-24.2l0,0c8.6-8.8,18.1-17.3,28.2-25.3c44.1-35,92.8-56.3,134.1-59.8
			c-35.9,0.4-77,10.2-117.4,29.9c-16.6,8.1-32,17.4-45.9,27.4h0C54.9,93.2,102.3,49.1,160,49.1C190.7,49.1,218.6,61.6,238.6,81.8"/>
		<g>
			<path class="st0" d="M105.9,180.7c-8.4,9.7-17.5,24.1-17.5,38.6c0,17.9,9.6,33.4,23.4,40.6c0.2,0.1,0.4,0.2,0.6,0.3c0,0,0,0,0,0
				c0,0,0.1,0.1,0.2,0.1c0.6,0.3,1.2,0.6,1.7,0.8c0.5,0.2,0.9,0.4,1.4,0.6c13.6,5.9,28.5,9.2,44.3,9.2
				c61.2,0,110.9-49.7,110.9-110.9c0-18-4.3-35.1-12-50.2l0,0l25.3-8.5c1.5,3.1,2.8,6.2,4.1,9.5c0.6,1.6,1.2,3.2,1.7,4.8
				c4.8,14,7.4,28.9,7.4,44.5c0,75.9-61.5,137.4-137.4,137.4c-39.6,0-75.3-16.8-100.3-43.6c-0.8-0.8-1.5-1.6-2.2-2.4
				c-0.4-0.5-1.3-1.6-1.3-1.6c-5.5-7.2-8.8-16.2-8.8-25.9c0-9.6,2.9-18.4,8.2-25.5l0.2-0.2c23.8-30.5,61.3-59,107.6-78.5
				c29.4-12.4,37.8-18.2,92.9-29.4l-0.9-8.3l34.5,1.6l-28,20.2l-3-10c-34.7,6.5-78.4,28-114.2,53.3
				C129.4,157.8,114.3,171,105.9,180.7z"/>
		</g>
	</g>
	<g>
		<g>
			<path class="st0" d="M116.7,259.4c12.1,5.3,24.9,8.3,38.2,8.9v-71.5h-39.6v62c0.1,0,0.1,0,0.1,0.1
				C115.8,259.1,116.2,259.2,116.7,259.4z"/>
		</g>
		<path class="st0" d="M160.8,268.4c14-0.1,27.4-2.9,39.6-7.8v-99.9h-39.6V268.4z"/>
		<path class="st0" d="M205.3,122.4v136c15.5-7.2,29.1-17.9,39.6-31.2V122.4H205.3z"/>
	</g>
</g>
</svg>
